<?xml version="1.0" standalone="no"?>
<!DOCTYPE svg PUBLIC "-//W3C//DTD SVG 20010904//EN"
 "http://www.w3.org/TR/2001/REC-SVG-20010904/DTD/svg10.dtd">
<svg version="1.0" xmlns="http://www.w3.org/2000/svg"
 width="305.000000pt" height="323.000000pt" viewBox="0 0 305.000000 323.000000"
 preserveAspectRatio="xMidYMid meet">

<g transform="translate(0.000000,323.000000) scale(0.100000,-0.100000)"
fill="#000000" stroke="none">
<path d="M2153 2944 c-10 -4 -13 -53 -13 -195 l0 -189 45 0 c62 0 119 31 157
85 l31 44 59 -31 c68 -36 144 -108 181 -171 110 -187 92 -531 -44 -834 l-30
-66 -55 89 c-140 223 -344 454 -534 607 -96 77 -259 189 -337 233 -29 16 -53
32 -53 36 0 20 284 131 393 153 15 3 27 10 27 15 0 13 -29 6 -171 -40 -64 -21
-153 -57 -198 -79 l-81 -41 -60 30 c-87 44 -160 71 -160 60 0 -6 5 -10 11 -10
18 0 179 -78 179 -87 0 -4 -31 -25 -69 -47 -85 -48 -125 -79 -120 -94 2 -6 48
18 107 58 56 39 106 70 111 70 16 0 189 -121 293 -205 229 -185 526 -533 659
-773 l23 -43 -29 -57 c-164 -314 -510 -691 -847 -922 -47 -33 -91 -60 -98 -60
-8 0 -138 83 -201 130 -4 3 -1 29 6 58 21 80 4 141 -52 193 -35 33 -58 45
-104 53 -70 12 -69 15 -69 -195 l0 -189 45 0 c45 0 110 26 149 59 11 9 16 10
12 3 -15 -26 8 -53 84 -99 l79 -47 -67 -38 c-37 -21 -72 -38 -78 -38 -10 0
-24 -21 -24 -36 0 -11 33 0 124 41 l98 44 49 -24 c208 -106 511 -173 664 -147
43 7 32 9 -85 14 -147 7 -240 28 -387 91 -84 35 -183 85 -183 91 0 3 28 22 63
42 333 202 669 552 864 902 l30 54 33 -71 c19 -39 38 -71 44 -71 35 1 34 17
-5 110 l-39 94 44 105 c84 200 116 345 116 532 0 278 -116 482 -319 560 -43
16 -45 18 -47 62 -4 69 -47 133 -109 165 -26 12 -96 22 -112 16z"/>
<path d="M337 2233 c-4 -3 -7 -92 -7 -196 l0 -189 54 4 c213 18 246 313 42
373 -54 16 -79 19 -89 8z"/>
<path d="M1323 2025 c-223 -49 -403 -271 -403 -499 0 -231 133 -409 335 -447
131 -25 315 10 443 83 143 82 337 306 317 368 -7 23 -53 80 -64 80 -5 0 -24
-26 -44 -57 -51 -83 -119 -156 -192 -208 -196 -140 -411 -127 -492 30 -20 38
-31 172 -20 245 21 145 126 270 227 270 106 0 150 -96 94 -208 -32 -65 -88
-113 -159 -137 -35 -12 -55 -25 -55 -35 0 -24 20 -89 29 -95 14 -8 176 42 239
74 165 83 248 243 198 376 -53 137 -246 205 -453 160z"/>
<path d="M2683 1314 c-10 -4 -13 -54 -13 -200 l0 -194 24 0 c22 0 24 -5 30
-73 8 -75 -5 -179 -31 -251 -7 -22 -11 -41 -9 -44 18 -17 71 262 64 332 -3 27
2 32 46 55 82 42 124 131 105 221 -11 51 -56 113 -97 134 -31 16 -101 27 -119
20z"/>
<path d="M2666 523 c-6 -14 -5 -15 5 -6 7 7 10 15 7 18 -3 3 -9 -2 -12 -12z"/>
<path d="M2639 478 c-6 -12 -32 -45 -57 -72 l-46 -51 45 42 c41 39 88 103 75
103 -3 0 -11 -10 -17 -22z"/>
<path d="M2358 273 c7 -3 16 -2 19 1 4 3 -2 6 -13 5 -11 0 -14 -3 -6 -6z"/>
<path d="M2308 263 c6 -2 18 -2 25 0 6 3 1 5 -13 5 -14 0 -19 -2 -12 -5z"/>
</g>
</svg>
