<svg width="404" height="211" xmlns="http://www.w3.org/2000/svg" preserveAspectRatio="xMidYMid meet">
 <g>
  <title>background</title>
  <rect fill="none" id="canvas_background" height="213" width="406" y="-1" x="-1"/>
 </g>

 <g>
  <title>Layer 1</title>
  <g id="svg_1" fill="#000000" transform="translate(0,211) scale(0.10000000149011612,-0.10000000149011612) ">
   <path id="svg_2" d="m849,2001c-35,-33 -68,-65 -74,-71c-5,-6 -32,-32 -60,-58c-27,-26 -108,-105 -180,-175c-72,-71 -144,-136 -159,-146c-15,-10 -49,-41 -75,-68c-44,-46 -46,-51 -43,-95c4,-47 7,-50 282,-335l278,-287l-277,-284c-270,-277 -276,-284 -279,-328c-2,-33 0,-44 12,-44c23,0 636,631 636,655c0,18 -108,134 -509,548l-55,57l24,25c14,14 38,38 54,53c110,101 289,275 391,379c66,68 125,123 130,123c6,0 42,-32 80,-71c77,-78 116,-116 351,-346l161,-158l-289,-296c-171,-176 -288,-304 -288,-315c0,-18 625,-654 643,-654c4,0 7,21 7,48l0,47l-279,279l-279,279l279,286c275,281 279,286 279,326c0,54 -23,99 -67,133c-20,15 -143,133 -274,263c-130,130 -253,248 -272,263c-51,39 -74,34 -148,-33z" fill="#00bfbf"/>
   <path fill="#00bfbf" id="svg_3" d="m1518,1119c-172,-176 -315,-330 -316,-341c-3,-16 70,-95 315,-340c175,-175 321,-318 325,-318c5,0 8,21 8,48l0,47l-279,279l-279,279l279,286l279,285l0,48c0,26 -4,48 -9,48c-5,0 -150,-144 -323,-321z"/>
   <path id="svg_4" d="m60,1386c0,-43 0,-44 279,-332l279,-288l-277,-284c-270,-277 -276,-284 -279,-328c-2,-33 0,-44 12,-44c8,0 153,142 323,315c239,244 308,320 308,340c0,19 -70,98 -309,345c-170,176 -315,320 -322,320c-10,0 -14,-13 -14,-44z" fill="#00bfbf"/>
   <path fill="#fff" d="m1760,796l0,-346l180,0c176,0 260,10 310,35c44,23 92,78 119,135c22,48 25,69 25,165c1,134 -18,198 -78,263c-72,79 -99,86 -343,90l-213,4l0,-346zm329,178c76,-16 113,-108 93,-238c-15,-97 -38,-119 -132,-124l-70,-4l0,186l0,186l39,0c21,0 52,-3 70,-6z" id="svg_5"/>
   <path fill="#fff" id="svg_6" d="m2695,1128c-3,-7 -60,-163 -128,-345l-124,-333l108,0l108,0l16,55l16,55l123,0l122,0l18,-55l17,-55l232,2l231,3l62,103c33,56 63,105 66,107c3,3 36,-44 73,-105l68,-110l120,0c94,0 117,3 110,13c-31,40 -223,338 -223,344c0,4 47,80 104,168l104,160l-111,3c-128,3 -113,13 -183,-115c-25,-46 -49,-83 -54,-83c-5,0 -34,45 -65,100l-57,100l-114,0c-63,0 -114,-2 -114,-4c0,-3 47,-77 105,-165l105,-161l-116,-176c-66,-102 -119,-173 -124,-168c-5,5 -36,83 -70,174c-34,91 -75,199 -91,240c-16,41 -44,116 -62,165l-33,90l-117,3c-88,2 -119,-1 -122,-10zm195,-415c0,-2 -34,-3 -75,-3c-41,0 -75,3 -75,6c0,3 16,59 37,123l36,116l38,-120c21,-66 39,-121 39,-122z"/>
  </g>
 </g>
</svg>